# xmcd CD database file
# Copyright (C) 1993-1998 Ti Kan
#
# Track frame offsets:
# 183
# 16633
# 32125
# 50010
# 70700
# 81765
# 98240
# 117733
#
# Disc length: 1939 seconds
# Revision: 0
# Processed by: cddbd v1.4b41PL1 Copyright (c) Steve Scherf et al.
# Submitted via: CDSpectrumPro v3.3.333
#
DISCID=62079108
DTITLE=Glen Campbell - Mull of Kintyre
DYEAR=1900
DGENRE=
TTITLE0=Rollin' (in my sweet baby's arms)
TTITLE1=I'm so lonesome I could cry
TTITLE2=Southern nights
TTITLE3=Amazing grace
TTITLE4=Try a little kindness
TTITLE5=In your loving arms again
TTITLE6=It's your world boys and girls
TTITLE7=Mull of Kintyre
EXTD=
EXTT0=
EXTT1=
EXTT2=
EXTT3=
EXTT4=
EXTT5=
EXTT6=
EXTT7=
PLAYORDER=
